<?xml version="1.0" encoding="UTF-8"?>
<svg version="1.1" xmlns="http://www.w3.org/2000/svg" width="601" height="601">

<path d="M0 0 C1.03301491 -0.01270432 1.03301491 -0.01270432 2.0868988 -0.02566528 C4.34873261 -0.04893771 6.60988201 -0.05005966 8.87182617 -0.04882812 C10.45595059 -0.05593691 12.04007246 -0.06363695 13.62419128 -0.07189941 C16.94028888 -0.08532275 20.25614852 -0.08692331 23.57226562 -0.08105469 C27.80232929 -0.07516818 32.0312414 -0.10571535 36.26108265 -0.14617157 C39.53242544 -0.17214433 42.80349471 -0.17491725 46.07492638 -0.17127991 C47.6333168 -0.17296301 49.19172098 -0.18252695 50.75000954 -0.20042419 C60.58256832 -0.30091205 68.40836126 0.11839158 75.74519348 7.26330566 C80.55504352 12.40840165 80.97271229 16.3374437 81.04516602 23.34057617 C81.05743225 24.373153 81.05743225 24.373153 81.06994629 25.42658997 C81.09470555 27.69909823 81.111294 29.97154431 81.12573242 32.24414062 C81.1310561 33.02358347 81.13637978 33.80302631 81.14186478 34.60608864 C81.16855832 38.73372029 81.18794322 42.86132213 81.20239258 46.98901367 C81.21571421 50.39260843 81.24353854 53.79560116 81.28442383 57.19897461 C81.33393151 61.32096182 81.35853556 65.4424045 81.36561966 69.56467628 C81.3723018 71.12868005 81.38744418 72.6926731 81.41151047 74.25650597 C81.53688465 82.89793138 81.56963647 90.36341492 75.85229492 97.41992188 C70.5062135 102.62892429 65.11502626 104.79165856 57.6887207 104.82397461 C56.99843781 104.83083786 56.30815491 104.83770111 55.59695435 104.84477234 C53.33029208 104.86297264 51.06432661 104.85921224 48.79760742 104.85351562 C47.21108782 104.85808129 45.6245702 104.86338801 44.03805542 104.86940002 C40.7177526 104.87831827 37.39769046 104.87592349 34.07739258 104.8659668 C29.83840561 104.85448921 25.60025319 104.87467589 21.36137581 104.90388393 C18.08579292 104.92230021 14.81040793 104.92194256 11.53478622 104.91624641 C9.97279567 104.9160938 8.41079119 104.92208793 6.84885025 104.93453789 C-2.48151876 104.99842732 -9.64523814 104.88138156 -17.17114258 98.77929688 C-17.6171582 98.24820313 -18.06317383 97.71710938 -18.52270508 97.16992188 C-18.98418945 96.64914063 -19.44567383 96.12835938 -19.92114258 95.59179688 C-24.32783906 87.78885661 -23.47496408 78.49516523 -23.48364258 69.82617188 C-23.4900807 68.30977252 -23.49680979 66.79337438 -23.5038147 65.27697754 C-23.51574063 62.10991537 -23.51950014 58.94296192 -23.51831055 55.77587891 C-23.51810708 51.73427162 -23.5454584 47.69336526 -23.57985497 43.65192413 C-23.60217438 40.52391402 -23.60614664 37.39607167 -23.60509109 34.26799011 C-23.60743757 32.77855504 -23.61620696 31.28911467 -23.63175583 29.79975891 C-23.78727357 13.3728816 -23.78727357 13.3728816 -17.77108765 6.95031738 C-12.33043903 2.07424451 -7.24170715 0.04922426 0 0 Z " fill="#7ED2B4" transform="translate(271.147705078125,127.580078125)"/>
<path d="M0 0 C0.68531799 -0.00992981 1.37063599 -0.01985962 2.07672119 -0.03009033 C4.33422949 -0.05919178 6.59145635 -0.07291628 8.84912109 -0.08398438 C9.62515057 -0.08963913 10.40118004 -0.09529388 11.20072556 -0.10112 C15.31123962 -0.13105514 19.42161432 -0.149542 23.53222656 -0.15820312 C27.75214442 -0.16913765 31.97076015 -0.21712822 36.19027138 -0.27414703 C39.45738275 -0.31164302 42.7241888 -0.32182386 45.99149704 -0.32487488 C47.54548602 -0.33087925 49.0994728 -0.34676989 50.65324783 -0.37324524 C60.26413568 -0.52525893 68.08526964 0.18359502 75.99755859 6.32226562 C80.82029206 11.42227681 82.12090219 15.99652554 82.14282227 22.88574219 C82.14618088 23.54793259 82.14953949 24.21012299 82.15299988 24.89237976 C82.16250144 27.08256913 82.16445286 29.27268192 82.16552734 31.46289062 C82.16874145 32.98883089 82.17210564 34.51477084 82.1756134 36.04071045 C82.18160337 39.24182855 82.18345354 42.44291966 82.18286133 45.64404297 C82.18275994 49.73387854 82.19638885 53.8235396 82.21363354 57.91333389 C82.22478843 61.06702458 82.22677943 64.22067363 82.2262516 67.37438202 C82.22742736 68.88137155 82.23182631 70.38836231 82.23958397 71.89533234 C82.24945065 74.01074683 82.24647942 76.12578965 82.24047852 78.24121094 C82.24190353 79.44239563 82.24332855 80.64358032 82.24479675 81.88116455 C81.83955296 87.5214139 80.65834864 92.23974661 76.87255859 96.50976562 C76.33373047 97.14269531 75.79490234 97.775625 75.23974609 98.42773438 C67.22253526 105.20185851 59.12680099 104.90041531 49.14990234 104.81835938 C47.60868766 104.8185146 46.06747259 104.8200074 44.52626038 104.82276917 C41.30777575 104.82414829 38.08973941 104.81167612 34.87133789 104.78881836 C30.76018977 104.76041084 26.64978418 104.76318391 22.53858089 104.77590847 C19.35996737 104.78288524 16.18152345 104.77505409 13.00293159 104.76265144 C11.48758153 104.758158 9.97221312 104.75778159 8.4568615 104.76171684 C6.33455349 104.76464952 4.21324555 104.74802739 2.09106445 104.72631836 C0.88719589 104.72091537 -0.31667267 104.71551239 -1.55702209 104.70994568 C-8.28536781 103.95286934 -13.16385679 100.92482173 -18.00244141 96.32226562 C-18.00244141 95.66226563 -18.00244141 95.00226563 -18.00244141 94.32226562 C-18.66244141 94.32226562 -19.32244141 94.32226562 -20.00244141 94.32226562 C-21.75173552 89.7813685 -22.25912696 85.9979333 -22.27709961 81.14282227 C-22.28221054 80.45093307 -22.28732147 79.75904388 -22.29258728 79.04618835 C-22.30640834 76.77484316 -22.3055323 74.50380394 -22.30322266 72.23242188 C-22.30711356 70.64350778 -22.31144904 69.05459472 -22.31620789 67.46568298 C-22.32365388 64.14123151 -22.32339051 60.81688628 -22.31811523 57.49243164 C-22.31232111 53.24452342 -22.32925786 48.99705129 -22.35245991 44.74921513 C-22.36723264 41.46941104 -22.36806418 38.18971115 -22.36495018 34.90987968 C-22.36546156 33.34427463 -22.37066474 31.77866347 -22.3807621 30.2130909 C-22.39317923 28.01881141 -22.38630438 25.82537083 -22.37475586 23.63110352 C-22.37538528 22.38567276 -22.37601471 21.140242 -22.37666321 19.85707092 C-21.83505868 14.74121036 -20.30850348 10.86579353 -16.93994141 6.88476562 C-15.00244141 5.32226562 -15.00244141 5.32226562 -13.00244141 5.32226562 C-12.67244141 4.33226562 -12.34244141 3.34226563 -12.00244141 2.32226562 C-8.04984199 0.15076846 -4.44981337 0.04921212 0 0 Z " fill="#7ED3B4" transform="translate(391.00244140625,127.677734375)"/>
<path d="M0 0 C0.65897781 -0.00817749 1.31795563 -0.01635498 1.99690247 -0.02478027 C4.17745063 -0.04958569 6.35793367 -0.06614202 8.53857422 -0.08056641 C9.65946756 -0.08855192 9.65946756 -0.08855192 10.80300522 -0.09669876 C14.76205162 -0.12341547 18.72106674 -0.14279086 22.68017578 -0.15722656 C25.94511103 -0.17053726 29.20941704 -0.1983375 32.47412109 -0.23925781 C36.42637903 -0.28878897 40.37806862 -0.31337284 44.33062363 -0.32045364 C45.83043499 -0.32713392 47.33023528 -0.34227137 48.82986832 -0.36634445 C58.24016832 -0.5087275 65.85500825 -0.08339747 73.00344849 6.63589478 C77.79875505 11.9847538 79.84238399 17.0654723 79.85644531 24.1887207 C79.86170227 24.86110275 79.86695923 25.5334848 79.87237549 26.22624207 C79.88550044 28.4328078 79.87686376 30.6386427 79.86669922 32.84521484 C79.86872236 34.38928871 79.87163581 35.93336164 79.87539673 37.47743225 C79.8798101 40.70778534 79.87342195 43.9378889 79.859375 47.16821289 C79.84229786 51.29508594 79.85212088 55.42137296 79.87009239 59.54822445 C79.88096935 62.73540098 79.8774658 65.92244022 79.86970901 69.10962105 C79.86771705 70.63056064 79.87013078 72.15151296 79.87714767 73.67243767 C79.88482551 75.80449979 79.87307078 77.93563341 79.85644531 80.06762695 C79.85405853 81.27752792 79.85167175 82.48742889 79.84921265 83.73399353 C79.25877543 89.09492036 77.25581794 93.76085501 73.78076172 97.94287109 C73.34376953 98.49458984 72.90677734 99.04630859 72.45654297 99.61474609 C64.89167695 105.61907983 55.34603401 104.66661559 46.21826172 104.66162109 C44.63460016 104.66873316 43.05094115 104.67643367 41.46728516 104.68469238 C38.1589439 104.69809063 34.85084114 104.6997264 31.54248047 104.69384766 C27.31910319 104.68794681 23.09687359 104.71857952 18.87371826 104.75896454 C15.60670896 104.78490506 12.33997405 104.78771343 9.07287598 104.78407288 C7.51645008 104.78575728 5.96001058 104.79533392 4.40368652 104.81321716 C-5.10750018 104.91051814 -11.96024711 104.54300549 -19.03417969 97.75012207 C-23.8499212 92.50565793 -24.78003918 87.11389812 -24.80639648 80.19702148 C-24.81150742 79.52463943 -24.81661835 78.85225739 -24.82188416 78.15950012 C-24.83570062 75.95308346 -24.83482953 73.74698193 -24.83251953 71.54052734 C-24.83641069 69.99645371 -24.84074622 68.45238114 -24.84550476 66.90830994 C-24.85294977 63.67801436 -24.85268811 60.44782812 -24.84741211 57.2175293 C-24.84161812 53.09068442 -24.85855483 48.96428844 -24.88175678 44.83751774 C-24.89653217 41.6503592 -24.8973607 38.46330786 -24.89424706 35.27612114 C-24.8947583 33.75517322 -24.89995897 32.23421899 -24.91005898 30.71330452 C-24.92248137 28.58128304 -24.91559828 26.45012427 -24.90405273 24.31811523 C-24.90468216 23.10821426 -24.90531158 21.89831329 -24.90596008 20.65174866 C-24.3403576 15.4239674 -22.4601902 11.58554897 -19.53173828 7.19287109 C-18.87173828 7.19287109 -18.21173828 7.19287109 -17.53173828 7.19287109 C-17.53173828 6.53287109 -17.53173828 5.87287109 -17.53173828 5.19287109 C-16.26218528 4.54452455 -14.99104122 3.89929294 -13.71923828 3.25537109 C-13.01154297 2.89572266 -12.30384766 2.53607422 -11.57470703 2.16552734 C-7.57449966 0.26103091 -4.39095896 0.04737497 0 0 Z " fill="#FDFEFE" transform="translate(393.53173828125,368.80712890625)"/>
<path d="M0 0 C8.9540496 -0.11631033 17.90783557 -0.20492462 26.86247826 -0.25906086 C31.02138499 -0.28505552 35.1797715 -0.32026517 39.33837891 -0.37719727 C43.3584663 -0.43188295 47.37805618 -0.46149656 51.39848709 -0.47438622 C52.92539925 -0.48356111 54.45228693 -0.50147655 55.97898483 -0.52865028 C65.60261379 -0.69298929 74.21627721 -0.35362619 81.6355896 6.51396179 C86.12969601 11.61454991 87.25053969 15.39203066 87.30639648 22.12011719 C87.31472 22.82961517 87.32304352 23.53911316 87.33161926 24.27011108 C87.35568529 26.61242185 87.36448821 28.95445376 87.37109375 31.296875 C87.38006453 32.93109213 87.38918646 34.56530844 87.39845276 36.19952393 C87.41493737 39.62587476 87.42264157 43.05212797 87.42553711 46.47851562 C87.43091239 50.85440375 87.46855839 55.22936501 87.51428127 59.60499191 C87.54413045 62.98178393 87.5512624 66.3583552 87.55226326 69.73526764 C87.55645204 71.34752892 87.56883222 72.95979168 87.58978081 74.5719223 C87.78247463 90.68722145 87.78247463 90.68722145 82 97 C81.175 97.94875 80.35 98.8975 79.5 99.875 C74.88791574 103.79527162 70.90937773 104.25258348 64.94995117 104.2746582 C64.2598143 104.27976913 63.56967743 104.28488007 62.85862732 104.29014587 C60.58665184 104.30399746 58.31498134 104.30308809 56.04296875 104.30078125 C54.45502104 104.30467143 52.86707437 104.30900677 51.27912903 104.31376648 C47.9528974 104.32121976 44.62677193 104.3209445 41.30053711 104.31567383 C37.05381915 104.30988908 32.80753875 104.3267902 28.56089306 104.3500185 C25.28104646 104.36480777 22.00130387 104.36562036 18.72142982 104.36250877 C17.15665129 104.36301967 15.59186657 104.36821357 14.02712059 104.37832069 C-3.75078977 104.47904087 -3.75078977 104.47904087 -9.875 99.46484375 C-13 95.22222222 -13 95.22222222 -13 93 C-13.66 93 -14.32 93 -15 93 C-17.15416307 85.11873258 -17.31027788 77.56972843 -17.30078125 69.4375 C-17.30467776 68.03702673 -17.30901436 66.63655462 -17.31376648 65.23608398 C-17.32118724 62.31457673 -17.32096713 59.39319043 -17.31567383 56.47167969 C-17.30987521 52.74978153 -17.32683943 49.02838039 -17.3500185 45.30656433 C-17.36483051 42.41871302 -17.36561763 39.5309795 -17.36250877 36.64309692 C-17.36301793 35.27172865 -17.36817844 33.90035308 -17.37832069 32.52902222 C-17.44578794 22.13600651 -16.7424253 13.32887831 -10 5 C-6.58163714 2.37049011 -4.29412301 1.63193231 0 2 C0 1.34 0 0.68 0 0 Z " fill="#FEFEFE" transform="translate(144,369)"/>
<path d="M0 0 C1.49637493 -0.00202447 2.9927489 -0.00493901 4.48912048 -0.00869751 C7.61336737 -0.01310197 10.73735562 -0.00674999 13.86157227 0.00732422 C17.85163193 0.02443015 21.8410867 0.0145545 25.83112431 -0.00339317 C28.91707358 -0.01426944 32.00288105 -0.0107674 35.08883476 -0.0030098 C36.55953482 -0.00101916 38.03024805 -0.00342682 39.50093269 -0.01044846 C41.56094272 -0.01812863 43.61999254 -0.00636993 45.67993164 0.01025391 C46.84827042 0.01264069 48.01660919 0.01502747 49.22035217 0.01748657 C54.87881197 0.65722567 59.52442783 2.8943765 63.83984375 6.6484375 C64.484375 7.18984375 65.12890625 7.73125 65.79296875 8.2890625 C69.98557197 13.21081411 70.96544694 18.20196679 70.9621582 24.52368164 C70.96580887 25.19781601 70.96945953 25.87195038 70.97322083 26.56651306 C70.98126019 28.77247105 70.96777391 30.97767906 70.953125 33.18359375 C70.95260565 34.7286326 70.95312623 36.27367212 70.95463562 37.81871033 C70.9545462 41.04729149 70.94417716 44.27562139 70.92602539 47.50415039 C70.90332019 51.63211862 70.90280081 55.75972089 70.90954304 59.88773441 C70.91289196 63.07485682 70.90623587 66.26189653 70.8964138 69.44900322 C70.89257888 70.9707642 70.89140647 72.49253441 70.89299965 74.01429939 C70.89337254 76.14390575 70.88068905 78.27305114 70.86450195 80.40258789 C70.85759087 82.21624596 70.85759087 82.21624596 70.85054016 84.06654358 C70.42730324 89.47582598 68.96380972 93.50288383 65.40234375 97.5859375 C64.85191406 98.23949219 64.30148437 98.89304687 63.734375 99.56640625 C58.73250365 103.83940746 53.71248184 104.77400234 47.28100586 104.77075195 C46.58736435 104.77440262 45.89372284 104.77805328 45.17906189 104.78181458 C42.90818049 104.7898571 40.6380269 104.77636482 38.3671875 104.76171875 C36.77730815 104.76119944 35.18742816 104.76171988 33.59754944 104.76322937 C30.27481427 104.76313993 26.95232317 104.75276793 23.62963867 104.73461914 C19.38060517 104.71191446 15.1319272 104.71139432 10.88284969 104.71813679 C7.60308193 104.72148522 4.32339454 104.71483053 1.04364204 104.70500755 C-0.52277645 104.70117174 -2.08920391 104.70000059 -3.6556263 104.7015934 C-5.84749384 104.70196615 -8.03891303 104.68928636 -10.23071289 104.6730957 C-11.47534805 104.66848831 -12.71998322 104.66388092 -14.00233459 104.65913391 C-17.4464407 104.39566176 -20.19813285 103.63580832 -23.41015625 102.3984375 C-23.41015625 101.7384375 -23.41015625 101.0784375 -23.41015625 100.3984375 C-24.24546875 100.12 -24.24546875 100.12 -25.09765625 99.8359375 C-28.77108782 97.55245301 -31.61083794 93.84662246 -32.96377563 89.70278931 C-33.55117167 86.67047322 -33.57004286 83.76655172 -33.60302734 80.67724609 C-33.61120483 80.00997498 -33.61938232 79.34270386 -33.62780762 78.6552124 C-33.65256495 76.45244213 -33.66915644 74.24973609 -33.68359375 72.046875 C-33.68891743 71.29074543 -33.6942411 70.53461586 -33.6997261 69.75557327 C-33.72642116 65.74998236 -33.74580399 61.74442216 -33.76025391 57.73876953 C-33.77356464 54.4390066 -33.80136831 51.13986624 -33.84228516 47.84033203 C-33.89186139 43.84153077 -33.91640537 39.84329171 -33.92348099 35.84419632 C-33.9301532 34.32846558 -33.94526905 32.8127454 -33.9693718 31.29719162 C-34.12220744 21.10204955 -33.40319059 12.66136559 -26.09765625 4.9609375 C-17.54490917 -0.01158987 -9.63208232 -0.04606073 0 0 Z " fill="#FBFEFD" transform="translate(281.41015625,368.6015625)"/>
<path d="M0 0 C0.68692429 -0.00832352 1.37384857 -0.01664703 2.08158875 -0.02522278 C4.34392031 -0.04923977 6.60596281 -0.05808621 8.8684082 -0.06469727 C10.45156434 -0.07367262 12.03471966 -0.08279462 13.61787415 -0.09205627 C16.93570002 -0.10852821 20.25342524 -0.11624262 23.57128906 -0.11914062 C27.80011458 -0.12451088 32.02797872 -0.16214129 36.25653362 -0.20788479 C39.52789156 -0.23779654 42.79902241 -0.24486728 46.07050514 -0.24586678 C47.62808428 -0.25004413 49.18566567 -0.26237747 50.74310875 -0.28338432 C59.61369365 -0.39347131 67.57061727 -0.27348495 74.98168945 5.30639648 C80.68953136 11.36736502 82.10099722 15.80705012 82.12695312 24.09106445 C82.13031174 24.76476074 82.13367035 25.43845703 82.13713074 26.13256836 C82.14661158 28.35459245 82.14858242 30.57654094 82.1496582 32.79858398 C82.15287285 34.34791088 82.15623708 35.89723746 82.15974426 37.44656372 C82.16572841 40.69297998 82.1675849 43.93936964 82.16699219 47.18579102 C82.16689062 51.33735024 82.18054011 55.48873822 82.1977644 59.64025688 C82.20890542 62.84022804 82.21091075 66.04015807 82.21038246 69.24014664 C82.21155951 70.77029129 82.21596581 72.30043711 82.22371483 73.83056259 C82.23355702 75.97480878 82.2306202 78.11868682 82.22460938 80.26293945 C82.22603439 81.48109344 82.22745941 82.69924744 82.22892761 83.95431519 C81.97635443 87.37872932 81.21035384 90.11279427 79.98168945 93.30639648 C79.32168945 93.30639648 78.66168945 93.30639648 77.98168945 93.30639648 C77.71356445 93.94577148 77.44543945 94.58514648 77.16918945 95.24389648 C75.98168945 97.30639648 75.98168945 97.30639648 72.98168945 98.30639648 C72.98168945 98.96639648 72.98168945 99.62639648 72.98168945 100.30639648 C65.51906857 105.13789985 58.23386478 104.8756339 49.6418457 104.80249023 C48.15026275 104.8026455 46.6586794 104.80413904 45.167099 104.80690002 C42.05115778 104.80827915 38.93567957 104.79581011 35.81982422 104.77294922 C31.84786906 104.74459045 27.87668356 104.74730155 23.90467167 104.76003933 C20.82719987 104.76703226 17.74990244 104.75916589 14.67245293 104.7467823 C13.20899565 104.74230105 11.74551944 104.74190155 10.28206062 104.7458477 C-7.85974174 104.77187049 -7.85974174 104.77187049 -15.01831055 98.80639648 C-17.01831055 96.30639648 -17.01831055 96.30639648 -18.01831055 93.30639648 C-18.67831055 93.30639648 -19.33831055 93.30639648 -20.01831055 93.30639648 C-21.70893329 88.88278911 -22.2706921 85.21998537 -22.27709961 80.49414062 C-22.28060425 79.84126572 -22.28410889 79.18839081 -22.28771973 78.51573181 C-22.29646608 76.3742281 -22.2907126 74.23305936 -22.28393555 72.09155273 C-22.2852844 70.59232012 -22.28722678 69.09308794 -22.28973389 67.59385681 C-22.29267568 64.45771097 -22.28841863 61.32167939 -22.27905273 58.18554688 C-22.26766859 54.17985193 -22.274217 50.17442535 -22.28619766 46.16874027 C-22.29345029 43.07423407 -22.29111259 39.97979069 -22.28594208 36.88528252 C-22.28461447 35.4090007 -22.28622193 33.93271306 -22.29090118 32.45643806 C-22.29602158 30.38682232 -22.28817942 28.31763127 -22.27709961 26.24804688 C-22.27550842 25.07367569 -22.27391724 23.8993045 -22.27227783 22.68934631 C-21.83038145 16.80310284 -20.12938796 11.33198307 -17.01831055 6.30639648 C-14.89331055 5.61889648 -14.89331055 5.61889648 -13.01831055 5.30639648 C-12.68831055 4.31639648 -12.35831055 3.32639648 -12.01831055 2.30639648 C-8.05876608 0.12821889 -4.45831803 0.0383223 0 0 Z " fill="#7ED3B4" transform="translate(391.018310546875,248.693603515625)"/>
<path d="M0 0 C1.58366156 -0.00711207 3.16732057 -0.01481258 4.75097656 -0.02307129 C8.05931781 -0.03646954 11.36742058 -0.03810531 14.67578125 -0.03222656 C18.89915852 -0.02632572 23.12138812 -0.05695843 27.34454346 -0.09734344 C30.61155276 -0.12328396 33.87828767 -0.12609234 37.14538574 -0.12245178 C38.70181163 -0.12413618 40.25825113 -0.13371283 41.8145752 -0.15159607 C57.34565372 -0.31048151 57.34565372 -0.31048151 63.75 5.46875 C64.69875 6.29375 65.6475 7.11875 66.625 7.96875 C70.54527162 12.58083426 71.00258348 16.55937227 71.0246582 22.51879883 C71.02976913 23.2089357 71.03488007 23.89907257 71.04014587 24.61012268 C71.05399746 26.88209816 71.05308809 29.15376866 71.05078125 31.42578125 C71.05467143 33.01372896 71.05900677 34.60167563 71.06376648 36.18962097 C71.07121976 39.5158526 71.0709445 42.84197807 71.06567383 46.16821289 C71.05988908 50.41493085 71.0767902 54.66121125 71.1000185 58.90785694 C71.11480777 62.18770354 71.11562036 65.46744613 71.11250877 68.74732018 C71.11301967 70.31209871 71.11821357 71.87688343 71.12832069 73.44162941 C71.22772528 90.98732679 71.22772528 90.98732679 66.20703125 97.45703125 C65.66433594 97.89402344 65.12164062 98.33101563 64.5625 98.78125 C64.03269531 99.23113281 63.50289063 99.68101562 62.95703125 100.14453125 C54.74622838 105.07101297 46.69337478 104.92733546 37.41015625 104.90234375 C35.91857162 104.9069132 34.42698908 104.91222103 32.93540955 104.91822815 C29.81956391 104.92712807 26.70397501 104.92477202 23.58813477 104.91479492 C19.61608182 104.90330883 15.64491842 104.9235262 11.67298222 104.95271206 C8.59551973 104.97115133 5.5182674 104.97076636 2.44076347 104.96507454 C0.97728668 104.96492227 -0.48620522 104.97088795 -1.94962883 104.98336601 C-11.67968797 105.05465745 -19.40766662 104.46893844 -27.125 98.09375 C-31.35085742 92.87357318 -32.62618789 88.70773755 -32.65405273 82.01391602 C-32.66091599 81.29276611 -32.66777924 80.57161621 -32.67485046 79.82861328 C-32.69305705 77.45975704 -32.68928995 75.09156701 -32.68359375 72.72265625 C-32.68815857 71.06648037 -32.69346504 69.41030639 -32.69947815 67.75413513 C-32.70839721 64.28840423 -32.70600001 60.82290391 -32.69604492 57.35717773 C-32.68455758 52.92753569 -32.70476876 48.49869111 -32.73396206 44.06915379 C-32.75235529 40.65035491 -32.7520254 37.23174604 -32.74632454 33.81291008 C-32.7461717 32.18031636 -32.75218496 30.54770944 -32.76461601 28.91516304 C-32.77958391 26.62726715 -32.76880843 24.34083042 -32.75170898 22.05297852 C-32.75154282 20.75425308 -32.75137665 19.45552765 -32.75120544 18.1174469 C-32.12839735 13.58350178 -30.80447535 11.24224339 -28.25 7.46875 C-26 6.03125 -26 6.03125 -24.25 5.46875 C-24.25 4.80875 -24.25 4.14875 -24.25 3.46875 C-16.45475719 -0.37275382 -8.49545211 -0.00464851 0 0 Z " fill="#FDFEFE" transform="translate(160.25,248.53125)"/>
<path d="M0 0 C0.67077576 -0.00511093 1.34155151 -0.01022186 2.03265381 -0.01548767 C4.23426415 -0.02930577 6.43555866 -0.02843269 8.63720703 -0.02612305 C10.17888504 -0.03001457 11.72056198 -0.03435018 13.26223755 -0.03910828 C16.488337 -0.04655399 19.71432698 -0.04629145 22.94042969 -0.04101562 C27.05820864 -0.03522652 31.17553698 -0.05214619 35.2932415 -0.0753603 C38.47615137 -0.0901509 41.65895409 -0.09096207 44.84189224 -0.08785057 C46.35922258 -0.08836122 47.87655932 -0.09355046 49.39385605 -0.10366249 C63.96930772 -0.18887948 63.96930772 -0.18887948 71.02001953 3.2746582 C71.02001953 3.9346582 71.02001953 4.5946582 71.02001953 5.2746582 C71.59751953 5.5015332 72.17501953 5.7284082 72.77001953 5.9621582 C76.01986809 7.85790319 78.3700674 10.40696187 79.62223816 14.00518799 C80.16321047 17.09160837 80.17226375 20.07739691 80.19702148 23.21118164 C80.20359268 23.90117249 80.21016388 24.59116333 80.2169342 25.30206299 C80.23660011 27.57938764 80.2483153 29.85664652 80.25830078 32.1340332 C80.26237631 32.9147242 80.26645184 33.69541519 80.27065086 34.49976349 C80.29148391 38.63273348 80.30579705 42.76567056 80.31518555 46.89868164 C80.32623898 51.15334198 80.36063408 55.40747776 80.40035725 59.66195297 C80.42658284 62.94607472 80.43488266 66.23007262 80.43846703 69.51428986 C80.44331834 71.08188669 80.45489064 72.64947853 80.47350502 74.21697235 C80.66586696 91.49026662 80.66586696 91.49026662 74.05517578 98.2980957 C73.40419922 98.74411133 72.75322266 99.19012695 72.08251953 99.6496582 C71.43412109 100.11114258 70.78572266 100.57262695 70.11767578 101.0480957 C65.39185725 103.81142348 61.61552232 104.52848098 56.13769531 104.54931641 C55.12934128 104.5569828 55.12934128 104.5569828 54.10061646 104.56480408 C51.8887632 104.57865024 49.67722335 104.57774693 47.46533203 104.57543945 C45.91982916 104.57932951 44.37432734 104.58366481 42.8288269 104.58842468 C39.59255505 104.59587647 36.35639231 104.59560348 33.12011719 104.59033203 C28.98539661 104.58454281 24.85112478 104.6014599 20.71647835 104.6246767 C17.52502864 104.63945391 14.33368596 104.64028028 11.1422081 104.63716698 C9.61846911 104.63767832 8.09472383 104.64288083 6.57101822 104.6529789 C4.43409873 104.66540218 2.29803991 104.65851722 0.16113281 104.64697266 C-1.65824295 104.64791679 -1.65824295 104.64791679 -3.51437378 104.64888 C-9.36796733 104.01679953 -13.96124436 102.01149746 -17.79248047 97.3996582 C-18.35580078 96.74223633 -18.91912109 96.08481445 -19.49951172 95.4074707 C-22.76468147 90.7035586 -23.23430628 86.68174937 -23.25463867 81.00927734 C-23.2597496 80.29642075 -23.26486053 79.58356415 -23.27012634 78.84910583 C-23.2839782 76.50258896 -23.28306898 74.15636725 -23.28076172 71.80981445 C-23.28465099 70.17223502 -23.28898614 68.5346566 -23.29374695 66.89707947 C-23.30119961 63.46829963 -23.30092475 60.03962278 -23.2956543 56.61083984 C-23.28985995 52.2249263 -23.30679424 47.83943509 -23.32999897 43.45359135 C-23.34475663 40.07260183 -23.34560527 36.69171357 -23.34248924 33.31069756 C-23.3430014 31.6940267 -23.34821934 30.07735002 -23.35830116 28.46071053 C-23.37068847 26.19667519 -23.36386095 23.93345663 -23.35229492 21.66943359 C-23.35323906 19.74013756 -23.35323906 19.74013756 -23.35420227 17.77186584 C-22.94977276 13.99235871 -21.8794148 11.53892026 -19.97998047 8.2746582 C-19.31998047 8.2746582 -18.65998047 8.2746582 -17.97998047 8.2746582 C-17.97998047 7.6146582 -17.97998047 6.9546582 -17.97998047 6.2746582 C-12.55742752 1.17107896 -7.29878146 0.02788214 0 0 Z " fill="#FDFEFE" transform="translate(150.97998046875,127.725341796875)"/>
<path d="M0 0 C1.2375 -0.00580078 1.2375 -0.00580078 2.5 -0.01171875 C10.33290721 0.00071444 16.41676298 0.63419952 23.375 4.5625 C25.03789062 5.48869141 25.03789062 5.48869141 26.734375 6.43359375 C28.73437811 7.60386584 30.69694911 8.83963274 32.625 10.125 C32.625 10.785 32.625 11.445 32.625 12.125 C33.285 12.125 33.945 12.125 34.625 12.125 C34.625 12.785 34.625 13.445 34.625 14.125 C35.615 14.455 36.605 14.785 37.625 15.125 C37.625 15.785 37.625 16.445 37.625 17.125 C38.285 17.125 38.945 17.125 39.625 17.125 C39.625 17.785 39.625 18.445 39.625 19.125 C40.2334375 19.38796875 40.841875 19.6509375 41.46875 19.921875 C47.0362601 23.02838426 49.06355897 29.80824292 50.9375 35.5625 C54.66563009 49.68696034 53.09351248 62.71525636 47.625 76.125 C46.965 76.125 46.305 76.125 45.625 76.125 C45.5321875 77.176875 45.5321875 77.176875 45.4375 78.25 C43.4967075 85.11741961 36.9433147 89.75125085 31.625 94.125 C31.08101563 94.59164062 30.53703125 95.05828125 29.9765625 95.5390625 C18.26465168 104.85145988 2.84505641 104.55029673 -11.375 103.125 C-25.86468015 100.45159217 -36.16026128 89.62939381 -44.375 78.125 C-51.73621794 66.91894645 -52.88970375 55.06524338 -50.875 41.84375 C-47.85125671 28.51179096 -41.16632459 19.37236211 -31.375 10.125 C-30.385 9.795 -29.395 9.465 -28.375 9.125 C-28.045 8.465 -27.715 7.805 -27.375 7.125 C-24.3125 6.5 -24.3125 6.5 -21.375 6.125 C-21.375 5.465 -21.375 4.805 -21.375 4.125 C-14.02795162 0.81162524 -8.03401743 -0.03730968 0 0 Z " fill="#FDD55D" transform="translate(299.375,248.875)"/>
<path d="M0 0 C1.65 0 3.3 0 5 0 C5 198.33 5 396.66 5 601 C3.35 601 1.7 601 0 601 C0 402.67 0 204.34 0 0 Z " fill="#3FB98E" transform="translate(0,0)"/>
<path d="M0 0 C0.88365234 0.00451172 1.76730469 0.00902344 2.67773438 0.01367188 C4.84768559 0.02540134 7.01760172 0.04333505 9.1875 0.0625 C9.1875 0.3925 9.1875 0.7225 9.1875 1.0625 C7.4859375 1.13597656 7.4859375 1.13597656 5.75 1.2109375 C4.22914602 1.2860414 2.70831375 1.36158584 1.1875 1.4375 C0.44371094 1.4684375 -0.30007813 1.499375 -1.06640625 1.53125 C-7.43121023 1.86332673 -14.3229983 2.54921891 -19.8125 6.0625 C-20.1425 6.7225 -20.4725 7.3825 -20.8125 8.0625 C-22.5546875 9.09765625 -22.5546875 9.09765625 -24.6875 10.125 C-25.73550781 10.63740234 -25.73550781 10.63740234 -26.8046875 11.16015625 C-28.8125 12.0625 -28.8125 12.0625 -31.8125 13.0625 C-32.48478656 14.39300855 -33.15068619 15.72675126 -33.8125 17.0625 C-35.80878071 18.88732102 -37.90249653 20.52143039 -40.03515625 22.18359375 C-42.16792568 24.43823572 -42.47354345 26.0223205 -42.8125 29.0625 C-43.4725 29.0625 -44.1325 29.0625 -44.8125 29.0625 C-44.93625 29.743125 -45.06 30.42375 -45.1875 31.125 C-45.8125 34.0625 -45.8125 34.0625 -46.8125 37.4375 C-50.40473549 50.45935364 -49.89130838 62.01574296 -43.8125 74.0625 C-43.35875 75.135 -42.905 76.2075 -42.4375 77.3125 C-39.45633694 82.35754517 -35.69472861 86.80768093 -30.8125 90.0625 C-31.1425 91.0525 -31.4725 92.0425 -31.8125 93.0625 C-42.58124819 82.96679857 -51.08714138 71.60347377 -52.03125 56.58203125 C-52.45531726 39.24828187 -47.66938177 26.84841224 -36.09008789 14.26391602 C-33.70608033 11.76163681 -32.13811877 10.17103959 -28.8125 9.0625 C-28.4825 8.4025 -28.1525 7.7425 -27.8125 7.0625 C-24.75 6.4375 -24.75 6.4375 -21.8125 6.0625 C-21.8125 5.4025 -21.8125 4.7425 -21.8125 4.0625 C-14.29504591 0.67227561 -8.22078343 -0.0796944 0 0 Z " fill="#C1D66F" transform="translate(299.8125,248.9375)"/>
<path d="M0 0 C1.010625 0.556875 2.02125 1.11375 3.0625 1.6875 C3.701875 2.120625 4.34125 2.55375 5 3 C5 3.66 5 4.32 5 5 C5.804375 5.226875 6.60875 5.45375 7.4375 5.6875 C8.7059375 6.3371875 8.7059375 6.3371875 10 7 C10.8125 9.625 10.8125 9.625 11 12 C11.5775 12.020625 12.155 12.04125 12.75 12.0625 C17.84716168 14.18631736 20.01810235 22.06450846 22.16796875 26.88671875 C24.59775077 33.05813693 24.22125166 39.2614724 24.25 45.8125 C24.270625 46.97587891 24.29125 48.13925781 24.3125 49.33789062 C24.34115841 55.63199312 24.26580942 60.52900619 21 66 C20.01 66.66 19.02 67.32 18 68 C18.47811177 66.22888156 18.9575278 64.45811517 19.4375 62.6875 C19.70433594 61.70136719 19.97117187 60.71523438 20.24609375 59.69921875 C20.78079425 57.78482474 21.37144538 55.88566385 22 54 C23.03035566 41.00279932 21.89555801 27.64369489 14.3125 16.5625 C12.26486434 13.98059911 12.26486434 13.98059911 10 13 C10 12.34 10 11.68 10 11 C9.34 11 8.68 11 8 11 C6.375 9.625 6.375 9.625 5 8 C5 7.34 5 6.68 5 6 C4.34 6 3.68 6 3 6 C3 5.34 3 4.68 3 4 C2.45988281 3.73316406 1.91976562 3.46632813 1.36328125 3.19140625 C-0.35801925 2.32364319 -2.06752297 1.43236085 -3.76953125 0.52734375 C-4.77371094 0.00269531 -5.77789062 -0.52195313 -6.8125 -1.0625 C-7.80894531 -1.58972656 -8.80539062 -2.11695313 -9.83203125 -2.66015625 C-16.15397065 -5.33392347 -22.68829985 -5.15716458 -29.4375 -5.125 C-30.64889648 -5.13080078 -30.64889648 -5.13080078 -31.88476562 -5.13671875 C-37.00992963 -5.12845902 -41.92731123 -4.7338218 -47 -4 C-46.67 -4.66 -46.34 -5.32 -46 -6 C-30.58083228 -10.78525895 -13.55059535 -8.64871678 0 0 Z " fill="#2DA356" transform="translate(329,255)"/>
<path d="M0 0 C9.0404957 -0.04637095 18.08095037 -0.08189339 27.12153912 -0.10362434 C31.31959425 -0.11405489 35.51756792 -0.12820077 39.71557617 -0.15087891 C43.76801668 -0.17263329 47.8203789 -0.18457411 51.87287331 -0.18975449 C53.41780644 -0.19344558 54.96273537 -0.20065338 56.50763512 -0.21146011 C58.6740477 -0.22600965 60.8401381 -0.22797651 63.0065918 -0.22705078 C64.23903122 -0.231492 65.47147064 -0.23593323 66.74125671 -0.24050903 C69.92531527 -0.00551205 72.13763961 0.6321561 75 2 C75 2.33 75 2.66 75 3 C48.93 3 22.86 3 -4 3 C-4.66 4.32 -5.32 5.64 -6 7 C-8 9.25 -8 9.25 -10 11 C-10.66 11 -11.32 11 -12 11 C-12 11.66 -12 12.32 -12 13 C-12.99 13.33 -13.98 13.66 -15 14 C-13.23186986 8.37413137 -9.83239156 5.22159437 -5 2 C-2.3125 1.875 -2.3125 1.875 0 2 C0 1.34 0 0.68 0 0 Z " fill="#AEEBDA" transform="translate(144,369)"/>
<path d="M0 0 C0.66 0 1.32 0 2 0 C2.82777968 4.29045157 3.09817144 8.28220862 3.02172852 12.64794922 C2.99158409 14.59929276 2.99158409 14.59929276 2.96083069 16.59005737 C2.93364039 17.99493637 2.90632945 19.39981303 2.87890625 20.8046875 C2.8545787 22.25342019 2.8307365 23.70216111 2.80735779 25.15090942 C2.74477877 28.94854155 2.67563923 32.74602652 2.60510254 36.54351807 C2.53418133 40.4247777 2.46950713 44.30614096 2.40429688 48.1875 C2.27562246 55.79178136 2.14001255 63.39591805 2 71 C1.34 71 0.68 71 0 71 C0.061875 72.258125 0.12375 73.51625 0.1875 74.8125 C0.18060372 78.70200387 0.18060372 78.70200387 -1.25 81.0625 C-3 82 -3 82 -5.1875 81.6875 C-5.785625 81.460625 -6.38375 81.23375 -7 81 C-6.34 80.01 -5.68 79.02 -5 78 C-4.34 78 -3.68 78 -3 78 C-2.855625 77.236875 -2.71125 76.47375 -2.5625 75.6875 C-2 73 -2 73 -1 70 C-0.88187505 67.74660334 -0.82303355 65.48995504 -0.79467773 63.23364258 C-0.78477814 62.55045456 -0.77487854 61.86726654 -0.76467896 61.16337585 C-0.73311321 58.90712947 -0.7083261 56.65086203 -0.68359375 54.39453125 C-0.66301996 52.82939611 -0.64202338 51.26426648 -0.62062073 49.69914246 C-0.56544391 45.58102884 -0.51601529 41.46286544 -0.46777344 37.34466553 C-0.41752635 33.14184136 -0.36185703 28.93908942 -0.30664062 24.73632812 C-0.19911274 16.4909465 -0.09765587 8.24550442 0 0 Z " fill="#34A67D" transform="translate(231,266)"/>
<path d="M0 0 C0.66102219 -0.00671722 1.32204437 -0.01343445 2.00309753 -0.02035522 C4.17222768 -0.03923761 6.34104686 -0.0432543 8.51025391 -0.04541016 C10.02951175 -0.05184455 11.54876838 -0.05857338 13.06802368 -0.06558228 C16.24703848 -0.07753039 19.42594481 -0.08126562 22.60498047 -0.08007812 C26.6623392 -0.079875 30.71899703 -0.107181 34.7761898 -0.14162254 C37.91278223 -0.1639475 41.0492074 -0.16791398 44.18587112 -0.16685867 C45.68088828 -0.16920607 47.17591065 -0.17798071 48.67084885 -0.19352341 C56.70342611 -0.26922525 63.19759136 -0.22098494 70.11181641 4.29052734 C70.11181641 4.62052734 70.11181641 4.95052734 70.11181641 5.29052734 C66.3958245 5.49139177 65.33973195 5.44247104 62.11181641 3.29052734 C58.93598514 2.95998329 58.93598514 2.95998329 55.25366211 2.97167969 C54.21424973 2.95661125 54.21424973 2.95661125 53.15383911 2.9412384 C50.86510034 2.91036574 48.57647876 2.89336023 46.28759766 2.87646484 C44.70003753 2.85775644 43.11248737 2.83818328 41.52494812 2.81777954 C37.34766518 2.76641752 33.17034998 2.72681368 28.99291992 2.68963623 C24.72973628 2.64962203 20.46668727 2.59851793 16.20361328 2.54833984 C7.83977291 2.45153239 -0.52413401 2.36714314 -8.88818359 2.29052734 C-8.88818359 2.95052734 -8.88818359 3.61052734 -8.88818359 4.29052734 C-11.19818359 4.62052734 -13.50818359 4.95052734 -15.88818359 5.29052734 C-11.82435319 0.32362352 -6.04505191 0.03878153 0 0 Z " fill="#B2ECDD" transform="translate(393.88818359375,368.70947265625)"/>
<path d="M0 0 C3.69147031 3.69147031 3.13727373 7.90780437 3.17700195 12.93652344 C3.18357315 13.62651428 3.19014435 14.31650513 3.19691467 15.02740479 C3.21658058 17.30472943 3.22829576 19.58198831 3.23828125 21.859375 C3.24235678 22.64006599 3.2464323 23.42075699 3.25063133 24.22510529 C3.27146438 28.35807528 3.28577752 32.49101235 3.29516602 36.62402344 C3.30621945 40.87868377 3.34061455 45.13281956 3.38033772 49.38729477 C3.4065633 52.67141652 3.41486313 55.95541441 3.41844749 59.23963165 C3.42329881 60.80722849 3.43487111 62.37482033 3.45348549 63.94231415 C3.62152335 79.03140832 3.62152335 79.03140832 -1 86 C-1.625 84.1875 -1.625 84.1875 -2 82 C-1.34 81.01 -0.68 80.02 0 79 C0.18381734 76.43207336 0.25240825 73.97448818 0.22705078 71.4074707 C0.22748886 70.25101547 0.22748886 70.25101547 0.22793579 69.07119751 C0.22654233 66.52261098 0.21098049 63.97431672 0.1953125 61.42578125 C0.19158242 59.65887105 0.18873543 57.89195878 0.18673706 56.12504578 C0.17910017 51.47417492 0.1594512 46.82342894 0.1373291 42.17260742 C0.11687188 37.42693776 0.10773561 32.68124792 0.09765625 27.93554688 C0.07620537 18.62364304 0.04206873 9.31183191 0 0 Z " fill="#E4FDFB" transform="translate(228,138)"/>
<path d="M0 0 C2.4196911 3.62953665 2.25827944 5.33335518 2.2746582 9.65527344 C2.27976913 10.32721741 2.28488007 10.99916138 2.29014587 11.69146729 C2.30405138 13.91419372 2.30308374 16.13661021 2.30078125 18.359375 C2.3046691 19.90773636 2.30900396 21.45609665 2.31376648 23.00445557 C2.32123179 26.25267997 2.32093625 29.50079572 2.31567383 32.74902344 C2.30989407 36.8994954 2.3267721 41.04951894 2.3500185 45.19991684 C2.36479933 48.3999489 2.36562139 51.59987424 2.36250877 54.79993439 C2.36302031 56.32925552 2.36822647 57.85858289 2.37832069 59.38787079 C2.39074575 61.5345863 2.38385707 63.68044521 2.37231445 65.82714844 C2.37294388 67.04609802 2.3735733 68.26504761 2.3742218 69.52093506 C1.81376711 74.7313698 0.21849375 79.58502887 -4 83 C-3.45276317 79.62537285 -2.9451 77.91765 -1 75 C-0.78780343 72.5554606 -0.68880479 70.22081965 -0.68115234 67.7746582 C-0.66608391 66.6767244 -0.66608391 66.6767244 -0.65071106 65.55661011 C-0.61982815 63.13800845 -0.60282996 60.71951775 -0.5859375 58.30078125 C-0.56722994 56.62354067 -0.54765683 54.94630954 -0.5272522 53.26908875 C-0.47588141 48.85506762 -0.43628223 44.44101595 -0.39910889 40.02685547 C-0.3591002 35.5223838 -0.30799358 31.01803967 -0.2578125 26.51367188 C-0.16099468 17.67587078 -0.07660867 8.83799775 0 0 Z " fill="#C6FAEA" transform="translate(471,383)"/>
<path d="M0 0 C0.33 0 0.66 0 1 0 C1.00586624 0.90122589 1.01173248 1.80245178 1.01777649 2.73098755 C1.07574394 11.23522405 1.147844 19.73919905 1.23571491 28.24318123 C1.28039182 32.61490145 1.31965377 36.98652906 1.34643555 41.35839844 C1.37249539 45.57960838 1.41291653 49.80046143 1.46318626 54.02145004 C1.4798369 55.62969388 1.49136241 57.23799942 1.49761391 58.84631729 C1.5072749 61.10381499 1.53535629 63.36040335 1.56762695 65.61767578 C1.57873001 66.90118927 1.58983307 68.18470276 1.60127258 69.5071106 C2.03489664 73.3056978 3.0067931 75.75555973 5 79 C5.66 79.33 6.32 79.66 7 80 C6.67 81.32 6.34 82.64 6 84 C3 80.25 3 80.25 3 78 C2.34 78 1.68 78 1 78 C-1.18317187 70.06768268 -1.27657229 62.48241046 -1.23046875 54.296875 C-1.22927399 52.88682091 -1.22882441 51.476766 -1.2290802 50.06671143 C-1.22752528 47.12840712 -1.2193094 44.19022637 -1.20581055 41.25195312 C-1.18875934 37.49394826 -1.18499862 33.73607783 -1.18575573 29.97803879 C-1.18548343 27.0732089 -1.17999365 24.16840813 -1.17275429 21.26358795 C-1.16958372 19.87776153 -1.167604 18.49193184 -1.16686058 17.10610199 C-1.16468341 15.17065739 -1.15512683 13.23522538 -1.14526367 11.29980469 C-1.14145187 10.20110046 -1.13764008 9.10239624 -1.13371277 7.97039795 C-1.00916675 5.20363713 -0.62756964 2.69254353 0 0 Z " fill="#B2ECDA" transform="translate(128,384)"/>
<path d="M0 0 C4.875 0.875 4.875 0.875 6 2 C8.34152841 2.12484154 10.65507585 2.18599291 12.99829102 2.20532227 C13.72995483 2.21522186 14.46161865 2.22512146 15.2154541 2.23532104 C17.64490472 2.26702383 20.07437493 2.29172793 22.50390625 2.31640625 C24.18400087 2.33696822 25.86409023 2.35796448 27.54417419 2.37937927 C31.97467803 2.43467826 36.40522915 2.48405287 40.83581543 2.53222656 C45.35347725 2.5823846 49.87107008 2.63810033 54.38867188 2.69335938 C63.2590557 2.8010366 72.12949932 2.90246018 81 3 C77.37046335 5.4196911 75.66664482 5.25827944 71.34472656 5.2746582 C70.33681061 5.2823246 70.33681061 5.2823246 69.30853271 5.29014587 C67.08580628 5.30405138 64.86338979 5.30308374 62.640625 5.30078125 C61.09226364 5.3046691 59.54390335 5.30900396 57.99554443 5.31376648 C54.74732003 5.32123179 51.49920428 5.32093625 48.25097656 5.31567383 C44.1005046 5.30989407 39.95048106 5.3267721 35.80008316 5.3500185 C32.6000511 5.36479933 29.40012576 5.36562139 26.20006561 5.36250877 C24.67074448 5.36302031 23.14141711 5.36822647 21.61212921 5.37832069 C19.4654137 5.39074575 17.31955479 5.38385707 15.17285156 5.37231445 C13.95390198 5.37294388 12.73495239 5.3735733 11.47906494 5.3742218 C7.3443834 4.92947932 4.68816096 3.89693836 1 2 C0.67 1.34 0.34 0.68 0 0 Z " fill="#CFF6E8" transform="translate(136,227)"/>
<path d="M0 0 C5.875 0.875 5.875 0.875 7 2 C9.26920225 2.1241622 11.5422645 2.17803748 13.81469727 2.20532227 C14.52685394 2.21522186 15.23901062 2.22512146 15.9727478 2.23532104 C18.33726628 2.26702212 20.70180489 2.29172724 23.06640625 2.31640625 C24.70166052 2.33696836 26.33690938 2.35796463 27.97215271 2.37937927 C32.28428786 2.43467672 36.59647158 2.48405201 40.90869141 2.53222656 C45.30570824 2.58238572 49.7026542 2.63810087 54.09960938 2.69335938 C62.73301307 2.80103473 71.3664759 2.90245871 80 3 C76.42034442 5.38643705 74.81368819 5.2629104 70.56005859 5.29052734 C69.91083435 5.29724457 69.26161011 5.30396179 68.5927124 5.31088257 C66.44454293 5.32988983 64.29668587 5.33378906 62.1484375 5.3359375 C60.64970777 5.34236711 59.1509793 5.34909559 57.6522522 5.35610962 C54.5065826 5.36809171 51.36102284 5.37178985 48.21533203 5.37060547 C44.20394129 5.37040304 40.19326508 5.3976213 36.18204308 5.43214989 C33.08314856 5.45450945 29.98442297 5.45844015 26.88545609 5.45738602 C25.40801168 5.4597316 23.93056187 5.46849587 22.45319748 5.48405075 C14.24812789 5.56230028 7.2044068 5.36138995 0 1 C0 0.67 0 0.34 0 0 Z " fill="#B3ECDA" transform="translate(136,348)"/>
<path d="M0 0 C36.63 0.495 36.63 0.495 74 1 C74 1.66 74 2.32 74 3 C49.91 3 25.82 3 1 3 C0.67 2.01 0.34 1.02 0 0 Z " fill="#31A67C" transform="translate(142,472)"/>
<path d="M0 0 C6.21657653 5.27346342 8.32188642 14.34492872 9.26757812 22.23144531 C10.03283045 33.21136321 8.14181742 42.84354337 4 53 C3.34 53 2.68 53 2 53 C1.938125 53.70125 1.87625 54.4025 1.8125 55.125 C0.69219429 59.08915867 -1.16066526 61.02216113 -4 64 C-4.66 64 -5.32 64 -6 64 C-5.67 62.68 -5.34 61.36 -5 60 C-4.34 60 -3.68 60 -3 60 C-2.566875 59.12988281 -2.566875 59.12988281 -2.125 58.2421875 C-1.42512047 56.84728871 -0.71805844 55.4559409 0 54.0703125 C3.27664498 47.69621407 5.16580099 42.02075125 5.75390625 34.85546875 C6 33 6 33 7 32 C7.23075082 30.65252916 7.41153063 29.29622435 7.5625 27.9375 C7.706875 26.638125 7.85125 25.33875 8 24 C7.34 24 6.68 24 6 24 C6 20.7 6 17.4 6 14 C5.34 14 4.68 14 4 14 C3.01 15.485 3.01 15.485 2 17 C1 16 1 16 0.9375 13.92578125 C0.958125 13.06339844 0.97875 12.20101563 1 11.3125 C1.04469939 7.41806542 0.80572583 3.82719768 0 0 Z " fill="#D2DA73" transform="translate(343,272)"/>
<path d="M0 0 C4.75 0.875 4.75 0.875 7 2 C9.46912883 2.24246108 11.91081266 2.42108116 14.38671875 2.55078125 C15.17044357 2.59262039 15.9541684 2.63445953 16.76164246 2.67756653 C27.55255444 3.19152377 38.3536442 3.1860309 49.15454102 3.18530273 C52.85118576 3.18752324 56.54754705 3.20584741 60.24414062 3.22460938 C62.60676983 3.22753813 64.96940042 3.22952639 67.33203125 3.23046875 C68.43094193 3.23765427 69.5298526 3.24483978 70.6620636 3.25224304 C71.6847081 3.24916641 72.7073526 3.24608978 73.76098633 3.24291992 C75.10185051 3.24505745 75.10185051 3.24505745 76.46980286 3.24723816 C79.08070533 3.11392009 79.08070533 3.11392009 81.63993835 1.9223175 C84 1 84 1 87 2 C82.41836084 4.64912564 79.1081129 5.37804976 73.83642578 5.38818359 C72.80100143 5.39606903 72.80100143 5.39606903 71.74465942 5.40411377 C69.4779756 5.41724456 67.21200265 5.4085989 64.9453125 5.3984375 C63.35879381 5.4004607 61.77227602 5.40337419 60.1857605 5.40713501 C56.86544922 5.41154938 53.54538064 5.40515782 50.22509766 5.39111328 C45.986228 5.37404973 41.74792946 5.38384997 37.50908089 5.40183067 C34.23350796 5.41271655 30.95806844 5.40919978 27.6824913 5.4014473 C26.12051194 5.39945708 24.55852017 5.40186279 22.99655533 5.40888596 C7.58460743 5.46296879 7.58460743 5.46296879 1 2 C0.67 1.34 0.34 0.68 0 0 Z " fill="#DBFCF7" transform="translate(135,468)"/>
<path d="M0 0 C0.495 0.99 0.495 0.99 1 2 C-0.22709655 4.98532445 -1.88671704 7.5648973 -4 10 C-7.1875 10.9375 -7.1875 10.9375 -10 11 C-10.66 11.33 -11.32 11.66 -12 12 C-14.31179403 12.10248573 -16.62661925 12.13845273 -18.94067383 12.14526367 C-20.01171104 12.15030159 -20.01171104 12.15030159 -21.10438538 12.15544128 C-23.47195156 12.16496309 -25.83944709 12.16689518 -28.20703125 12.16796875 C-29.85129323 12.17118111 -31.49555491 12.17454517 -33.13981628 12.17805481 C-36.59069481 12.1840496 -40.04154828 12.18589441 -43.49243164 12.18530273 C-47.91094144 12.18520124 -52.32929009 12.19883904 -56.74776173 12.21607494 C-60.14585607 12.22720447 -63.54391162 12.22922163 -66.94202232 12.22869301 C-68.57068117 12.22987224 -70.19934104 12.23429085 -71.82798195 12.24202538 C-74.10914941 12.25184198 -76.38996931 12.24894045 -78.67114258 12.24291992 C-80.61734245 12.24505745 -80.61734245 12.24505745 -82.6028595 12.24723816 C-85.85436694 12.01059893 -88.08434285 11.40620252 -91 10 C-90.67 9.34 -90.34 8.68 -90 8 C-89.1533075 8.32368057 -88.30661499 8.64736115 -87.43426514 8.98085022 C-83.79837394 10.05983439 -80.83739932 10.27283268 -77.05175781 10.30639648 C-76.05041306 10.31888176 -76.05041306 10.31888176 -75.02883911 10.33161926 C-72.83687382 10.35557809 -70.64520707 10.36447469 -68.453125 10.37109375 C-66.91623859 10.38007226 -65.37935301 10.38919431 -63.84246826 10.39845276 C-60.62477503 10.41490801 -57.4071854 10.42263627 -54.18945312 10.42553711 C-50.08955949 10.43091116 -45.99065566 10.46856438 -41.8910408 10.51428127 C-38.71661936 10.54419759 -35.54243185 10.55126383 -32.36788177 10.55226326 C-30.8577497 10.55643832 -29.34761516 10.56876221 -27.8376236 10.58978081 C-18.98187257 10.70322197 -11.43467144 10.33783515 -4 5 C-1.4224028 2.41554922 -1.4224028 2.41554922 0 0 Z " fill="#1C9B6E" transform="translate(228,221)"/>
<path d="M0 0 C3.43999013 3.12726376 4.88359153 5.54879488 5.26069641 10.24996948 C5.2653038 11.53759186 5.26991119 12.82521423 5.2746582 14.15185547 C5.27976913 14.86456604 5.28488007 15.57727661 5.29014587 16.31158447 C5.30402572 18.66353801 5.30308615 21.01519792 5.30078125 23.3671875 C5.30466948 25.00619617 5.30900441 26.64520384 5.31376648 28.28421021 C5.32122553 31.71896633 5.32094002 35.15361967 5.31567383 38.58837891 C5.30988397 42.98216816 5.3267998 47.37553521 5.3500185 51.76925468 C5.36477789 55.15453538 5.36562448 58.53971496 5.36250877 61.92502213 C5.36302102 63.54448405 5.36824066 65.16395178 5.37832069 66.78338242 C5.39070891 69.05231584 5.38387951 71.32043431 5.37231445 73.58935547 C5.37294388 74.87856903 5.3735733 76.16778259 5.3742218 77.49606323 C4.97016334 81.27936844 3.9018281 83.73290147 2 87 C1.375 85.25 1.375 85.25 1 83 C1.3172554 82.40818939 1.6345108 81.81637878 1.96138 81.20663452 C3.25122801 78.4662452 3.24732047 76.46784508 3.24291992 73.44384766 C3.24599655 72.32813385 3.24907318 71.21242004 3.25224304 70.06289673 C3.24505753 68.85878143 3.23787201 67.65466614 3.23046875 66.4140625 C3.23001053 65.16555511 3.22955231 63.91704773 3.2290802 62.63070679 C3.22605688 59.98267076 3.21924561 57.33498186 3.20581055 54.68701172 C3.18568988 50.67540825 3.18529982 46.66399857 3.18554688 42.65234375 C3.18062442 40.07291471 3.17479295 37.49348721 3.16796875 34.9140625 C3.16685593 33.73018951 3.1657431 32.54631653 3.16459656 31.3265686 C3.94434156 17.03675535 3.94434156 17.03675535 0 4 C0 2.68 0 1.36 0 0 Z " fill="#DAFCF7" transform="translate(226,377)"/>
<path d="M0 0 C1.03301491 -0.01270432 1.03301491 -0.01270432 2.0868988 -0.02566528 C4.34873261 -0.04893771 6.60988201 -0.05005966 8.87182617 -0.04882812 C10.45595059 -0.05593691 12.04007246 -0.06363695 13.62419128 -0.07189941 C16.94028888 -0.08532275 20.25614852 -0.08692331 23.57226562 -0.08105469 C27.80232929 -0.07516818 32.0312414 -0.10571535 36.26108265 -0.14617157 C39.53242544 -0.17214433 42.80349471 -0.17491725 46.07492638 -0.17127991 C47.6333168 -0.17296301 49.19172098 -0.18252695 50.75000954 -0.20042419 C59.48084494 -0.28965254 66.67741631 -0.11183975 73.85229492 5.41992188 C73.19229492 5.74992188 72.53229492 6.07992187 71.85229492 6.41992188 C70.60901728 5.83492593 69.39571361 5.18590886 68.19873047 4.51123047 C61.50058916 1.41380771 54.52389896 1.88254397 47.30932617 1.95898438 C45.81198791 1.96137366 44.3146466 1.9622731 42.81730652 1.96176147 C39.69474239 1.9648733 36.57264267 1.98131688 33.45019531 2.00830078 C29.45902783 2.04236712 25.4683667 2.04992582 21.47707081 2.04841042 C18.39116128 2.04895545 15.30536117 2.05994254 12.21948814 2.0744133 C10.74797071 2.08074985 9.27644098 2.08471279 7.80491066 2.08620071 C5.74733169 2.09056249 3.69027756 2.10812124 1.6328125 2.12939453 C-0.11850227 2.14082993 -0.11850227 2.14082993 -1.90519714 2.15249634 C-5.26480488 2.42957967 -7.9725884 3.33929135 -11.14770508 4.41992188 C-11.80770508 4.08992187 -12.46770508 3.75992188 -13.14770508 3.41992188 C-8.57796253 0.78225154 -5.25620532 0.03572815 0 0 Z " fill="#6FD9B3" transform="translate(391.147705078125,127.580078125)"/>
<path d="M0 0 C1.48786223 0.00373824 2.97572694 0.00658137 4.46359253 0.00857544 C8.34662888 0.01614816 12.22951147 0.03574057 16.11248779 0.0579834 C20.08799155 0.07858028 24.06352057 0.08760652 28.0390625 0.09765625 C35.81517365 0.11899364 43.59115889 0.15305095 51.3671875 0.1953125 C51.3671875 0.5253125 51.3671875 0.8553125 51.3671875 1.1953125 C50.15688622 1.20078094 50.15688622 1.20078094 48.9221344 1.20635986 C41.28699304 1.24435817 33.65233326 1.30134375 26.01750278 1.37921524 C22.09311407 1.41858426 18.16894617 1.45082406 14.24438477 1.46630859 C10.45099512 1.48154562 6.65821299 1.51611369 2.86509514 1.56362152 C1.42401371 1.57836327 -0.0171545 1.58634935 -1.45831108 1.58719635 C-8.86466955 1.59592038 -15.35010107 1.7286785 -22.00721741 5.34173584 C-23.6328125 6.1953125 -23.6328125 6.1953125 -25.6328125 6.1953125 C-25.6328125 6.8553125 -25.6328125 7.5153125 -25.6328125 8.1953125 C-26.6228125 8.5253125 -27.6128125 8.8553125 -28.6328125 9.1953125 C-28.6328125 7.8753125 -28.6328125 6.5553125 -28.6328125 5.1953125 C-27.6428125 4.8653125 -26.6528125 4.5353125 -25.6328125 4.1953125 C-25.6328125 3.5353125 -25.6328125 2.8753125 -25.6328125 2.1953125 C-17.11874465 -0.04317777 -8.73393018 -0.06507018 0 0 Z " fill="#13996B" transform="translate(401.6328125,367.8046875)"/>
<path d="M0 0 C9.54474059 -0.0695871 19.08939351 -0.12285542 28.63433266 -0.15543652 C33.0666972 -0.17107579 37.49888786 -0.1922822 41.93115234 -0.22631836 C46.21054157 -0.25897398 50.4897638 -0.27686609 54.76926804 -0.28463173 C56.39991254 -0.29016412 58.03054817 -0.3009676 59.66112137 -0.31719017 C61.94957299 -0.33904734 64.23733928 -0.34196353 66.52587891 -0.34057617 C68.47779648 -0.35056892 68.47779648 -0.35056892 70.46914673 -0.36076355 C74.27504076 0.02810218 76.71797116 1.0839179 80 3 C80 3.66 80 4.32 80 5 C79.236875 4.690625 78.47375 4.38125 77.6875 4.0625 C73.2214162 2.29683896 69.85525898 1.85338013 65.05004883 1.79467773 C64.34735367 1.78477814 63.64465851 1.77487854 62.92066956 1.76467896 C60.59949099 1.73310766 58.27829195 1.70832387 55.95703125 1.68359375 C54.34705577 1.66302044 52.73708564 1.64202387 51.12712097 1.62062073 C46.89063862 1.56543894 42.65410784 1.51601251 38.4175415 1.46777344 C34.09407239 1.41752999 29.77067356 1.36185877 25.44726562 1.30664062 C16.96490319 1.19910666 8.48248193 1.09765113 0 1 C0 0.67 0 0.34 0 0 Z " fill="#11A36D" transform="translate(384,127)"/>
<path d="M0 0 C2.0818518 2.72242158 4.00932824 5.50085702 5.875 8.375 C7.74266721 11.20918499 9.65483148 13.87043015 11.875 16.4375 C14 19 14 19 14 21 C14.515625 21.226875 15.03125 21.45375 15.5625 21.6875 C18 23 18 23 21.125 25.375 C25.37482168 28.49523945 30.06936977 30.22417945 35 32 C35 32.33 35 32.66 35 33 C27.45916115 33.37086093 27.45916115 33.37086093 25.375 31.6875 C24.92125 31.130625 24.4675 30.57375 24 30 C22.02379014 28.95377125 20.0262871 27.94560065 18 27 C18 26.34 18 25.68 18 25 C17.34 25 16.68 25 16 25 C14.375 23.625 14.375 23.625 13 22 C13 21.34 13 20.68 13 20 C12.34 20 11.68 20 11 20 C10.34 18.35 9.68 16.7 9 15 C8.34 15 7.68 15 7 15 C7 14.34 7 13.68 7 13 C6.34 13 5.68 13 5 13 C4.15615325 11.58957044 3.32530504 10.17135868 2.5 8.75 C2.0359375 7.96109375 1.571875 7.1721875 1.09375 6.359375 C0 4 0 4 0 0 Z " fill="#47A857" transform="translate(250,318)"/>
<path d="M0 0 C-0.33 0.99 -0.66 1.98 -1 3 C-5.11241022 3.98810044 -8.95346357 4.12092213 -13.17700195 4.11352539 C-13.87998917 4.11367142 -14.58297638 4.11381744 -15.30726624 4.1139679 C-17.61763659 4.11327441 -19.92792508 4.10550857 -22.23828125 4.09765625 C-23.84539241 4.09579006 -25.45250415 4.09436711 -27.05961609 4.09336853 C-31.27968937 4.08955915 -35.49972797 4.07974239 -39.7197876 4.06866455 C-44.02998384 4.05841643 -48.3401857 4.05386363 -52.65039062 4.04882812 C-61.10027629 4.03811867 -69.55013383 4.02106127 -78 4 C-78 3.67 -78 3.34 -78 3 C-77.11938904 2.99191315 -76.23877808 2.98382629 -75.33148193 2.97549438 C-67.03269651 2.89755487 -58.73407345 2.81026606 -50.43549728 2.71247292 C-46.16910809 2.66252625 -41.90274347 2.61619608 -37.63623047 2.578125 C-33.51883654 2.54125157 -29.40164893 2.49488606 -25.28443146 2.44193649 C-23.71360137 2.42340347 -22.14272707 2.40829146 -20.57183075 2.39665604 C-18.37156547 2.37977472 -16.17177156 2.35073583 -13.97167969 2.31884766 C-12.71925476 2.30552399 -11.46682983 2.29220032 -10.17645264 2.2784729 C-6.32714331 1.94101207 -3.80983377 0 0 0 Z " fill="#54B08F" transform="translate(343,470)"/>
<path d="M0 0 C1.05404274 -0.00021904 1.05404274 -0.00021904 2.12937927 -0.0004425 C4.45062351 0.00025382 6.77178737 0.00803313 9.09301758 0.01586914 C10.70298722 0.01773431 12.31295744 0.01915775 13.92292786 0.02015686 C18.1594703 0.02397421 22.39597843 0.03379785 26.63250732 0.04486084 C30.9559279 0.05509175 35.27935401 0.05965808 39.6027832 0.06469727 C48.08522082 0.0754208 56.56763055 0.09248786 65.05004883 0.11352539 C65.05004883 0.44352539 65.05004883 0.77352539 65.05004883 1.11352539 C64.21510895 1.12383286 63.38016907 1.13414032 62.51992798 1.14476013 C54.6620591 1.24262514 46.8042674 1.34512378 38.94652748 1.45286465 C34.90651832 1.50809449 30.86650192 1.56151458 26.82641602 1.61083984 C22.92954477 1.65848252 19.03276274 1.71082528 15.13599777 1.76646614 C13.64723295 1.78689014 12.15844367 1.80560316 10.66963577 1.82259941 C8.5888304 1.8466425 6.50819408 1.87669698 4.42749023 1.90820312 C2.64878036 1.93151955 2.64878036 1.93151955 0.83413696 1.95530701 C-1.90633182 1.92682188 -1.90633182 1.92682188 -3.94995117 3.11352539 C-6.28293777 3.1537493 -8.61701783 3.15672786 -10.94995117 3.11352539 C-8.87473844 -1.03690008 -4.06974741 -0.00710253 0 0 Z " fill="#6CD6B0" transform="translate(270.949951171875,127.886474609375)"/>
<path d="M0 0 C-2.54296596 0.95289469 -3.59444111 1.1844131 -6.11328125 0.0390625 C-6.83902344 -0.42757812 -7.56476563 -0.89421875 -8.3125 -1.375 C-14.80257024 -5.54635574 -21.98052731 -5.1605376 -29.4375 -5.125 C-30.64889648 -5.13080078 -30.64889648 -5.13080078 -31.88476562 -5.13671875 C-37.00992963 -5.12845902 -41.92731123 -4.7338218 -47 -4 C-46.67 -4.66 -46.34 -5.32 -46 -6 C-30.70434464 -10.74692753 -13.40910858 -8.76616142 0 0 Z " fill="#299F55" transform="translate(329,255)"/>
<path d="M0 0 C1.6045556 0.14148989 3.20863767 0.28835686 4.8125 0.4375 C5.70582031 0.51871094 6.59914063 0.59992188 7.51953125 0.68359375 C10 1 10 1 13 2 C15.8243887 2.12255168 18.61326762 2.18512869 21.4375 2.1875 C22.20126953 2.19974609 22.96503906 2.21199219 23.75195312 2.22460938 C27.75714324 2.23506679 30.48653201 2.09820688 34 0 C37.25 -0.125 37.25 -0.125 40 0 C33.43261144 4.37825904 27.87570314 4.3357272 20.1875 4.3125 C18.60485352 4.33666992 18.60485352 4.33666992 16.99023438 4.36132812 C10.60168786 4.36530853 5.82120534 3.66132307 0 1 C0 0.67 0 0.34 0 0 Z " fill="#D1DD75" transform="translate(280,348)"/>
<path d="M0 0 C1.98 0.66 3.96 1.32 6 2 C6 2.66 6 3.32 6 4 C6.804375 4.226875 7.60875 4.45375 8.4375 4.6875 C9.283125 5.120625 10.12875 5.55375 11 6 C11.8125 8.625 11.8125 8.625 12 11 C12.61875 11.0825 13.2375 11.165 13.875 11.25 C16 12 16 12 17.3125 13.875 C18 16 18 16 17 19 C16.38125 18.030625 15.7625 17.06125 15.125 16.0625 C13.34321154 12.97164638 13.34321154 12.97164638 11 12 C11 11.34 11 10.68 11 10 C10.34 10 9.68 10 9 10 C7.375 8.625 7.375 8.625 6 7 C6 6.34 6 5.68 6 5 C5.34 5 4.68 5 4 5 C4 4.34 4 3.68 4 3 C2.68 2.34 1.36 1.68 0 1 C0 0.67 0 0.34 0 0 Z " fill="#3DA856" transform="translate(328,256)"/>
<path d="M0 0 C0 0.33 0 0.66 0 1 C-0.69867188 1.02578125 -1.39734375 1.0515625 -2.1171875 1.078125 C-3.02726562 1.13484375 -3.93734375 1.1915625 -4.875 1.25 C-5.77992188 1.29640625 -6.68484375 1.3428125 -7.6171875 1.390625 C-10.14554306 1.74562381 -10.14554306 1.74562381 -11.1953125 3.90625 C-11.46085938 4.5971875 -11.72640625 5.288125 -12 6 C-14 8.25 -14 8.25 -16 10 C-16.66 10 -17.32 10 -18 10 C-18 10.66 -18 11.32 -18 12 C-18.99 12.33 -19.98 12.66 -21 13 C-19.23186986 7.37413137 -15.83239156 4.22159437 -11 1 C-7.29652815 -0.00093834 -3.82369899 -0.08892323 0 0 Z " fill="#CDF4EA" transform="translate(150,370)"/>
<path d="M0 0 C3.61619737 3.49954585 4.92213561 4.77363581 5.25 9.9375 C5.22266341 13.70311546 5.22266341 13.70311546 3.5 16 C3.005 16.33 2.51 16.66 2 17 C1 16 1 16 0.9375 13.92578125 C0.958125 13.06339844 0.97875 12.20101563 1 11.3125 C1.04469939 7.41806542 0.80572583 3.82719768 0 0 Z " fill="#DDD768" transform="translate(343,272)"/>
<path d="M0 0 C0.66 0 1.32 0 2 0 C1.34 2.31 0.68 4.62 0 7 C-0.66 7 -1.32 7 -2 7 C-2.433125 7.86625 -2.433125 7.86625 -2.875 8.75 C-3.24625 9.4925 -3.6175 10.235 -4 11 C-4.2475 11.721875 -4.495 12.44375 -4.75 13.1875 C-6 15 -6 15 -9.125 15.75 C-10.548125 15.87375 -10.548125 15.87375 -12 16 C-11.67 15.34 -11.34 14.68 -11 14 C-10.34 14 -9.68 14 -9 14 C-8.67 13.01 -8.34 12.02 -8 11 C-7.34 11 -6.68 11 -6 11 C-5.731875 10.4225 -5.46375 9.845 -5.1875 9.25 C-4 7 -4 7 -2.4375 4.9375 C-0.81311272 2.95818504 -0.81311272 2.95818504 0 0 Z " fill="#35A555" transform="translate(345,325)"/>
<path d="M0 0 C1.81718454 1.64411935 3.07102398 3.12175539 4.3125 5.25 C7.17310829 9.91173203 10.43690921 13.95793947 15 17 C14.67 17.99 14.34 18.98 14 20 C10.65886708 16.86768789 7.67556947 13.52541645 4.75 10 C4.06421875 9.175 3.3784375 8.35 2.671875 7.5 C0.94067739 4.91129329 0.37204038 3.06386194 0 0 Z " fill="#D1DD74" transform="translate(254,322)"/>
<path d="M0 0 C0 0.33 0 0.66 0 1 C-0.90363281 1.27714844 -1.80726563 1.55429687 -2.73828125 1.83984375 C-3.91777344 2.20207031 -5.09726562 2.56429688 -6.3125 2.9375 C-8.07013672 3.47697266 -8.07013672 3.47697266 -9.86328125 4.02734375 C-11.91553977 4.66372279 -13.96160137 5.32053379 -16 6 C-16 6.66 -16 7.32 -16 8 C-16.99 8.33 -17.98 8.66 -19 9 C-19 7.68 -19 6.36 -19 5 C-18.01 4.67 -17.02 4.34 -16 4 C-16 3.34 -16 2.68 -16 2 C-10.61972975 0.80911014 -5.54708616 -0.2919519 0 0 Z " fill="#1CA273" transform="translate(392,368)"/>
<path d="M0 0 C2.13131745 1.02618989 4.13680594 2.08852149 6.125 3.375 C10.23748515 5.69944813 14.59422598 7.3146845 19 9 C19 9.33 19 9.66 19 10 C11.45916115 10.37086093 11.45916115 10.37086093 9.375 8.6875 C8.694375 7.8521875 8.694375 7.8521875 8 7 C6.02379014 5.95377125 4.0262871 4.94560065 2 4 C2 3.34 2 2.68 2 2 C1.34 2 0.68 2 0 2 C0 1.34 0 0.68 0 0 Z " fill="#28A354" transform="translate(266,341)"/>
<path d="M0 0 C0.66 0.33 1.32 0.66 2 1 C1.52949219 1.56847656 1.05898438 2.13695312 0.57421875 2.72265625 C-3.13807403 7.32651418 -5.98623447 11.43253059 -8 17 C-8.33 17 -8.66 17 -9 17 C-8.84525943 9.72719328 -5.04822228 5.04822228 0 0 Z " fill="#30A254" transform="translate(260,265)"/>
<path d="M0 0 C0.33 0.99 0.66 1.98 1 3 C-2.625 6 -2.625 6 -6 6 C-6 6.66 -6 7.32 -6 8 C-14.03571429 10.27678571 -14.03571429 10.27678571 -18 9 C-17.3709375 8.85304688 -16.741875 8.70609375 -16.09375 8.5546875 C-9.61082454 6.8558486 -5.06389211 4.37078956 0 0 Z " fill="#34A458" transform="translate(332,341)"/>
<path d="M0 0 C0.5625 1.9375 0.5625 1.9375 1 4 C0.67 4.33 0.34 4.66 0 5 C-0.400383 7.85528607 -0.7518227 10.69736487 -1.0625 13.5625 C-1.15337891 14.36880859 -1.24425781 15.17511719 -1.33789062 16.00585938 C-1.56247449 18.00347377 -1.78173236 20.0016856 -2 22 C-2.33 22 -2.66 22 -3 22 C-3.08152344 19.45767658 -3.14073716 16.91800798 -3.1875 14.375 C-3.21263672 13.66214844 -3.23777344 12.94929688 -3.26367188 12.21484375 C-3.33024446 7.37723584 -2.55559453 4.25261662 0 0 Z " fill="#DDFAF4" transform="translate(252,378)"/>
<path d="M0 0 C5.28 0 10.56 0 16 0 C16 0.33 16 0.66 16 1 C13.69 1.33 11.38 1.66 9 2 C9 2.33 9 2.66 9 3 C6.03 3 3.06 3 0 3 C0 2.01 0 1.02 0 0 Z " fill="#31A962" transform="translate(296,352)"/>
<path d="M0 0 C0.91222891 3.07877257 1.32903218 5.79193623 1 9 C-0.25 10.875 -0.25 10.875 -2 12 C-4.1875 11.6875 -4.1875 11.6875 -6 11 C-5.34 10.01 -4.68 9.02 -4 8 C-3.34 8 -2.68 8 -2 8 C-1.855625 7.236875 -1.71125 6.47375 -1.5625 5.6875 C-1 3 -1 3 0 0 Z " fill="#33B084" transform="translate(230,336)"/>
<path d="M0 0 C2.64752004 2.57784846 4.94432065 4.91648098 7 8 C6.34 8 5.68 8 5 8 C4.67 8.66 4.34 9.32 4 10 C0.38860104 6.12435233 0.38860104 6.12435233 -1 4 C-0.8125 1.625 -0.8125 1.625 0 0 Z " fill="#1FA979" transform="translate(130,221)"/>
<path d="M0 0 C4.875 0.875 4.875 0.875 6 2 C8.85877909 2.23701239 11.69883297 2.42219182 14.5625 2.5625 C15.36880859 2.60568359 16.17511719 2.64886719 17.00585938 2.69335938 C19.00368805 2.79975262 21.0018207 2.90040888 23 3 C23 3.33 23 3.66 23 4 C20.10359882 4.08120751 17.20949088 4.14059421 14.3125 4.1875 C13.49587891 4.21263672 12.67925781 4.23777344 11.83789062 4.26367188 C7.06018259 4.32170072 3.88017566 4.13733144 0 1 C0 0.67 0 0.34 0 0 Z " fill="#D4F8EF" transform="translate(136,227)"/>
<path d="M0 0 C0.33 0.66 0.66 1.32 1 2 C-0.17467088 5.0468026 -1.76008265 7.62449444 -4 10 C-7.8125 10.5 -7.8125 10.5 -11 10 C-10.278125 9.443125 -9.55625 8.88625 -8.8125 8.3125 C-6.02417676 6.01987867 -3.51572008 3.58560119 -1 1 C-0.67 0.67 -0.34 0.34 0 0 Z " fill="#3CB086" transform="translate(228,221)"/>
<path d="M0 0 C4.85963179 0.60745397 8.7405518 2.72758967 13 5 C11 6 11 6 8.3984375 5.22265625 C6.90183594 4.64837891 6.90183594 4.64837891 5.375 4.0625 C4.37210937 3.68222656 3.36921875 3.30195313 2.3359375 2.91015625 C1.56507813 2.60980469 0.79421875 2.30945313 0 2 C0 1.34 0 0.68 0 0 Z " fill="#BED56F" transform="translate(312,250)"/>
<path d="M0 0 C0.66 0.66 1.32 1.32 2 2 C1.96712417 4.72869407 1.43602229 7.2966618 1 10 C-1.12038635 7.38485683 -3.13091744 4.80362384 -5 2 C-3.68 2 -2.36 2 -1 2 C-0.67 1.34 -0.34 0.68 0 0 Z " fill="#15A471" transform="translate(229,372)"/>
<path d="M0 0 C0.66 0.33 1.32 0.66 2 1 C0.38405168 3.04119788 -1.2856382 5.04072937 -3 7 C-3.66 7 -4.32 7 -5 7 C-5 7.66 -5 8.32 -5 9 C-5.66 9 -6.32 9 -7 9 C-6.82374165 6.62051228 -6.30280227 5.29774151 -4.59765625 3.62109375 C-3.09350908 2.37884514 -1.54870149 1.18623944 0 0 Z " fill="#6AD3AD" transform="translate(258,131)"/>
<path d="M0 0 C1.60495567 0.11442461 3.20898119 0.24194694 4.8125 0.375 C5.70582031 0.44460938 6.59914063 0.51421875 7.51953125 0.5859375 C10 1 10 1 13 3 C8.02398374 4.71050559 4.57383705 3.00885647 0 1 C0 0.67 0 0.34 0 0 Z " fill="#C4D56F" transform="translate(280,348)"/>
<path d="M0 0 C2.2432954 2.88423694 4.36318083 5.72636167 6 9 C5.578125 11.15625 5.578125 11.15625 5 13 C4.15615325 11.58957044 3.32530504 10.17135868 2.5 8.75 C2.0359375 7.96109375 1.571875 7.1721875 1.09375 6.359375 C0 4 0 4 0 0 Z " fill="#259F58" transform="translate(250,318)"/>
<path d="M0 0 C2.2477975 2.05233685 3.0022242 3.00667261 4 6 C4.66 6.33 5.32 6.66 6 7 C5.67 8.32 5.34 9.64 5 11 C2 7.25 2 7.25 2 5 C1.34 5 0.68 5 0 5 C0 3.35 0 1.7 0 0 Z " fill="#D0F8EF" transform="translate(129,457)"/>
<path d="M0 0 C-1.07429598 0.84495189 -2.15989202 1.67554858 -3.25 2.5 C-4.15492188 3.19609375 -4.15492188 3.19609375 -5.078125 3.90625 C-7 5 -7 5 -11 5 C-11 4.34 -11 3.68 -11 3 C-9.73581754 2.30034557 -8.46334598 1.61565237 -7.1875 0.9375 C-6.47980469 0.55464844 -5.77210938 0.17179687 -5.04296875 -0.22265625 C-3 -1 -3 -1 0 0 Z " fill="#BDD773" transform="translate(331,343)"/>
<path d="M0 0 C0.66 0 1.32 0 2 0 C2.33 0.99 2.66 1.98 3 3 C2.01 3.33 1.02 3.66 0 4 C0 4.66 0 5.32 0 6 C-0.99 6.33 -1.98 6.66 -3 7 C-2.25 2.25 -2.25 2.25 0 0 Z " fill="#19A571" transform="translate(133,130)"/>
<path d="M0 0 C1.32 0.33 2.64 0.66 4 1 C4 1.66 4 2.32 4 3 C4.99 3.33 5.98 3.66 7 4 C7.8125 5.9375 7.8125 5.9375 8 8 C7.34 8.66 6.68 9.32 6 10 C3 4.25 3 4.25 3 2 C2.01 1.67 1.02 1.34 0 1 C0 0.67 0 0.34 0 0 Z " fill="#27A779" transform="translate(224,254)"/>
<path d="M0 0 C0.33 0 0.66 0 1 0 C0.50769231 7.38461538 0.50769231 7.38461538 -2.0625 10.5 C-2.701875 10.995 -3.34125 11.49 -4 12 C-3.33501617 7.61110675 -1.81242323 4.0188515 0 0 Z " fill="#D4FBF3" transform="translate(471,454)"/>
<path d="M0 0 C0.66 0 1.32 0 2 0 C1.42655063 2.86724686 1.1385485 3.8614515 -1 6 C-1.99 5.67 -2.98 5.34 -4 5 C-3.34 4.01 -2.68 3.02 -2 2 C-1.34 2 -0.68 2 0 2 C0 1.34 0 0.68 0 0 Z " fill="#C8F4E8" transform="translate(376,374)"/>
<path d="M0 0 C-0.99 0 -1.98 0 -3 0 C-3 0.66 -3 1.32 -3 2 C-5.31 2.33 -7.62 2.66 -10 3 C-6.81859267 -0.48439851 -4.56758339 -1.41752588 0 0 Z " fill="#CCF6EB" transform="translate(388,371)"/>
<path d="M0 0 C-0.33 0.99 -0.66 1.98 -1 3 C-5.455 3.495 -5.455 3.495 -10 4 C-4 0 -4 0 0 0 Z " fill="#37AC81" transform="translate(343,470)"/>
<path d="M0 0 C0.66 0 1.32 0 2 0 C1.8125 1.875 1.8125 1.875 1 4 C-1.5625 5.25 -1.5625 5.25 -4 6 C-3.34 4.68 -2.68 3.36 -2 2 C-1.34 2 -0.68 2 0 2 C0 1.34 0 0.68 0 0 Z " fill="#CBF4E9" transform="translate(136,252)"/>
<path d="M0 0 C1.65 1.65 3.3 3.3 5 5 C4.67 5.66 4.34 6.32 4 7 C3.34 6.67 2.68 6.34 2 6 C2 5.34 2 4.68 2 4 C1.01 3.67 0.02 3.34 -1 3 C-0.67 2.01 -0.34 1.02 0 0 Z " fill="#5ED0A7" transform="translate(466,134)"/>
<path d="M0 0 C0.8353125 0.37125 0.8353125 0.37125 1.6875 0.75 C1.048125 0.853125 0.40875 0.95625 -0.25 1.0625 C-1.2709375 1.4028125 -1.2709375 1.4028125 -2.3125 1.75 C-2.6425 2.74 -2.9725 3.73 -3.3125 4.75 C-4.6325 4.42 -5.9525 4.09 -7.3125 3.75 C-2.88173077 -0.31153846 -2.88173077 -0.31153846 0 0 Z " fill="#C3F4E6" transform="translate(140.3125,130.25)"/>
<path d="M0 0 C-3.44450737 2.29633824 -5.93812283 2.54016485 -10 3 C-6.81859267 -0.48439851 -4.56758339 -1.41752588 0 0 Z " fill="#4DC399" transform="translate(388,129)"/>
</svg>
